<svg xmlns="http://www.w3.org/2000/svg" width="900" height="1150" viewBox="0 0 900 1150">
  <defs>
    <linearGradient id="bg" x1="0" x2="1" y1="0" y2="1">
      <stop offset="0" stop-color="#e9edf2"/>
      <stop offset="0.54" stop-color="#f9f7f2"/>
      <stop offset="1" stop-color="#ded3c8"/>
    </linearGradient>
  </defs>
  <rect width="900" height="1150" fill="url(#bg)"/>
  <ellipse cx="452" cy="322" rx="112" ry="128" fill="#1d1b1a"/>
  <circle cx="450" cy="301" r="78" fill="#c89d86"/>
  <path d="M344 419 C393 467 511 468 559 420 C652 518 705 709 703 958 L196 958 C196 712 250 518 344 419 Z" fill="#191919"/>
  <path d="M333 521 C386 578 516 577 568 521 L603 958 L294 958 Z" fill="#f4eee8"/>
  <rect x="120" y="900" width="660" height="122" rx="61" fill="#b8a191" opacity=".45"/>
  <circle cx="226" cy="206" r="44" fill="#e1b95e"/>
  <circle cx="681" cy="214" r="32" fill="#d56e5d"/>
  <path d="M99 1024 H801 V1150 H99 Z" fill="#151515"/>
</svg>
