<svg xmlns="http://www.w3.org/2000/svg" width="900" height="1050" viewBox="0 0 900 1050">
  <defs>
    <radialGradient id="halo" cx=".48" cy=".35" r=".68">
      <stop offset="0" stop-color="#fff1b8"/>
      <stop offset=".52" stop-color="#ece8df"/>
      <stop offset="1" stop-color="#c7d6dd"/>
    </radialGradient>
  </defs>
  <rect width="900" height="1050" fill="url(#halo)"/>
  <ellipse cx="450" cy="814" rx="310" ry="70" fill="#6b6e72" opacity=".24"/>
  <rect x="265" y="296" width="370" height="466" rx="48" fill="#f9fbf8"/>
  <rect x="306" y="337" width="288" height="385" rx="32" fill="#283e56"/>
  <circle cx="450" cy="469" r="93" fill="#e5c662"/>
  <rect x="356" y="600" width="188" height="28" rx="14" fill="#f9fbf8"/>
  <rect x="391" y="650" width="118" height="18" rx="9" fill="#f9fbf8" opacity=".72"/>
  <path d="M173 365 C251 332 293 250 351 181 C339 314 300 407 218 472 Z" fill="#83a37a"/>
  <path d="M722 289 C652 331 618 394 587 497 C708 455 758 376 722 289 Z" fill="#be7768"/>
</svg>
