<svg xmlns="http://www.w3.org/2000/svg" viewBox="0 0 420 300" role="img" aria-label="blueprint walker reference">
  <rect width="420" height="300" fill="#eef4f7"/>
  <g stroke="#b9d5df" stroke-width="1" opacity=".7">
    <path d="M24 54h372M24 106h372M24 158h372M24 210h372M24 262h372"/>
    <path d="M54 24v252M118 24v252M182 24v252M246 24v252M310 24v252M374 24v252"/>
  </g>
  <g fill="none" stroke-linecap="round" stroke-linejoin="round">
    <path d="M117 146c20-70 163-73 191-3" stroke="#0f6f9a" stroke-width="13"/>
    <path d="M151 140h112l31 40-24 36H153l-27-36z" stroke="#f15c2c" stroke-width="9"/>
    <path d="M151 217l-41 43M185 218l-13 45M238 218l17 45M271 217l40 43" stroke="#0f6f9a" stroke-width="11"/>
    <circle cx="153" cy="142" r="16" fill="#ff6b32" stroke="#0f6f9a" stroke-width="6"/>
    <circle cx="268" cy="140" r="16" fill="#ff6b32" stroke="#0f6f9a" stroke-width="6"/>
    <path d="M100 73h69M238 72h96M72 252h71M272 252h78" stroke="#23445a" stroke-width="3" opacity=".62"/>
  </g>
  <g fill="#23445a" font-family="Inter, Arial, sans-serif" font-size="12" font-weight="700" opacity=".75">
    <text x="28" y="25">SREF 2045219822 / FIG.02</text>
    <text x="294" y="286">MECH WALKER</text>
  </g>
</svg>
